HIERARCHY
ROOT root     
{
	OFFSET 0.0000 0.0000 0.0000
	CHANNELS 6 Xposition Yposition Zposition Zrotation Yrotation Xrotation
	JOINT pelvis   
	{
		OFFSET 0.0000 0.0000 0.0000
		CHANNELS 3 Zrotation Yrotation Xrotation
		JOINT thorax   
		{
			OFFSET 0.0000 23.0750 -5.0000
			CHANNELS 3 Zrotation Yrotation Xrotation
			JOINT rclavicle
			{
				OFFSET 0.0000 28.0009 0.0000
				CHANNELS 3 Zrotation Yrotation Xrotation
				JOINT rhumerus 
				{
					OFFSET -18.5725 5.5939 0.0000
					CHANNELS 3 Zrotation Yrotation Xrotation
					JOINT rradius  
					{
						OFFSET -24.8459 0.0000 0.0000
						CHANNELS 3 Zrotation Yrotation Xrotation
						JOINT rhand    
						{
							OFFSET -24.5477 0.0000 0.0000
							CHANNELS 3 Zrotation Yrotation Xrotation
							End Site
							{
								OFFSET -8.1826 0.0000 0.0000
							}
						}
					}
				}
			}
			JOINT lclavicle
			{
				OFFSET 0.0000 28.0009 0.0000
				CHANNELS 3 Zrotation Yrotation Xrotation
				JOINT lhumerus 
				{
					OFFSET 18.5725 5.5939 0.0000
					CHANNELS 3 Zrotation Yrotation Xrotation
					JOINT lradius  
					{
						OFFSET 24.8459 0.0000 0.0000
						CHANNELS 3 Zrotation Yrotation Xrotation
						JOINT lhand    
						{
							OFFSET 24.5477 0.0000 0.0000
							CHANNELS 3 Zrotation Yrotation Xrotation
							End Site
							{
								OFFSET 8.1826 0.0000 0.0000
							}
						}
					}
				}
			}
			JOINT head     
			{
				OFFSET 0.0000 35.2030 0.0000
				CHANNELS 3 Zrotation Yrotation Xrotation
				End Site
				{
					OFFSET 0.0000 11.7343 0.0000
				}
			}
		}
		JOINT rfemur   
		{
			OFFSET -8.2817 0.0000 0.0000
			CHANNELS 3 Zrotation Yrotation Xrotation
			JOINT rtibia   
			{
				OFFSET 0.0000 -43.3627 0.0000
				CHANNELS 3 Zrotation Yrotation Xrotation
				JOINT rfoot    
				{
					OFFSET 0.0000 -38.2947 0.0000
					CHANNELS 3 Zrotation Yrotation Xrotation
					JOINT rtoes    
					{
						OFFSET 0.0000 0.0000 16.6054
						CHANNELS 3 Zrotation Yrotation Xrotation
						End Site
						{
							OFFSET 0.0000 0.0000 5.5351
						}
					}
				}
			}
		}
		JOINT lfemur   
		{
			OFFSET 8.2817 0.0000 0.0000
			CHANNELS 3 Zrotation Yrotation Xrotation
			JOINT ltibia   
			{
				OFFSET 0.0000 -43.3627 0.0000
				CHANNELS 3 Zrotation Yrotation Xrotation
				JOINT lfoot    
				{
					OFFSET 0.0000 -38.2947 0.0000
					CHANNELS 3 Zrotation Yrotation Xrotation
					JOINT ltoes    
					{
						OFFSET 0.0000 0.0000 16.6054
						CHANNELS 3 Zrotation Yrotation Xrotation
						End Site
						{
							OFFSET 0.0000 0.0000 5.5351
						}
					}
				}
			}
		}
	}
}
MOTION
Frames: 15
Frame Time: .0333333
-68.626 85.002 -0.1265 54.3665 86.0641 73.4578 0 -0 0 8.46448 -12.2835 -8.4111 26.6694 -10.8919 -3.74524e-05 52.1722 -6.15206 -0.699491 -8.45979e-07 72.6152 -1.15134e-06 -4.21514 5.06237 -0.186401 -25.8679 12.2853 6.34396e-05 -34.2806 -6.04828 26.1854 -180 -79.5524 180 5.15801 -0.488504 -0.0219997 -11.1862 10.4921 -7.12128 0.975801 -5.17493 -36.6525 -0 -0 27.8736 -2.96097e-06 -4.67489 3.67548 -0.300295 1.23287e-06 -28.8792 -4.14654 7.95479 3.08459 -0 -0 24.2246 9.43781e-06 -8.53148 26.5877 -3.84118 -1.89305e-05 -76.5176 
-67.386 84.666 -0.0468 56.3912 86.0787 75.4023 0 -0 0 8.72416 -12.2262 -8.37221 26.8636 -10.6725 1.14662e-05 52.2168 -5.88502 -1.30558 -0 71.4126 -0 -5.16248 4.95259 -0.223405 -26.2873 12.2343 5.6202e-05 -33.4857 -6.1648 25.624 180 -78.9494 180 4.92336 -0.680598 -0.0292997 -12.3201 10.3244 -7.72594 0.828006 -5.08722 -36.9335 -0 -0 30.5631 -1.37989e-06 -5.02172 1.69581 -0.149 6.97817e-07 -26.3282 -3.80791 8.30452 2.77479 -0 -0 26.2281 -1.73822e-05 -9.23789 27.192 -4.25054 -4.27427e-07 -74.8488 
-66.151 84.361 0.0508 59.2028 86.1691 78.1037 0 -0 0 8.99674 -12.2253 -8.28242 27.0725 -10.4222 4.86489e-05 52.2436 -5.53063 -1.815 -1.02759e-06 70.1215 -7.21137e-07 -6.28506 4.79785 -0.263602 -26.7264 12.1719 2.54102e-05 -32.8293 -6.22901 25.0326 180 -78.532 180 4.77538 -0.897696 -0.0373998 -13.3986 10.1393 -8.29449 0.771111 -5.12693 -36.9696 -0 -0 32.9967 1.40099e-07 -5.27204 -0.172403 0.0158995 -1.85169e-07 -24.8497 -3.36875 8.61437 2.35166 -0 -0 28.4215 6.04423e-05 -9.7333 27.8213 -4.57718 -4.77812e-05 -72.6532 
-64.925 84.097 0.1675 62.9408 86.3551 81.7154 0 -0 0 9.29643 -12.2728 -8.16523 27.284 -10.1477 4.18737e-06 52.2594 -5.1006 -2.21701 -6.65854e-07 68.7703 -9.72973e-07 -7.56157 4.58305 -0.302995 -27.1763 12.104 3.73862e-06 -32.334 -6.24267 24.4443 -180 -78.3011 180 4.73761 -1.1231 -0.0464988 -14.4216 9.94758 -8.81128 0.817207 -5.2819 -36.755 -0 -0 35.033 2.77588e-06 -5.43839 -1.85456 0.176503 1.23713e-06 -24.4357 -2.83444 8.88354 1.80073 -0 -0 30.7683 3.45702e-05 -9.93815 28.4365 -4.76935 2.60856e-05 -70.0328 
-63.713 83.88 0.3025 67.8261 86.5837 86.4777 0 -0 0 9.62186 -12.3515 -8.03779 27.4886 -9.86346 -2.7882e-05 52.2766 -4.60315 -2.49992 -6.16303e-07 67.3999 -9.24122e-07 -8.95599 4.29731 -0.336701 -27.623 12.0384 -3.99795e-05 -32.019 -6.20789 23.886 -180 -78.2758 180 4.82748 -1.33944 -0.0565031 -15.3853 9.75908 -9.26389 0.967401 -5.54002 -36.3095 -0 -0 36.5903 -4.03358e-06 -5.53257 -3.32284 0.321699 4.63523e-08 -24.9052 -2.22372 9.11027 1.11828 -0 -0 33.217 4.65554e-05 -9.79243 28.9923 -4.78206 -1.6146e-06 -67.1599 
-62.517 83.714 0.453 74.1339 86.856 92.6775 0 -0 0 9.95934 -12.4388 -7.92187 27.6782 -9.57808 -9.41343e-05 52.3027 -4.06237 -2.66047 -5.73207e-07 66.0516 -8.81781e-07 -10.4178 3.93458 -0.358794 -28.052 11.9796 -9.62323e-05 -31.8977 -6.12724 23.3816 180 -78.448 180 5.05462 -1.52962 -0.0675008 -16.2892 9.58224 -9.64077 1.20788 -5.88007 -35.6718 -0 -0 37.6427 -1.23082e-06 -5.57519 -4.56992 0.445603 -1.06112e-07 -26.0318 -1.56811 9.29073 0.301297 -0 -0 35.716 -2.16864e-05 -9.2667 29.4394 -4.58493 -2.59389e-05 -64.2155 
-61.339 83.599 0.6151 82.0528 87.1302 100.516 0 -0 0 10.284 -12.5104 -7.83241 27.8467 -9.30332 1.79173e-06 52.3507 -3.50138 -2.69667 -7.58826e-07 64.776 -1.19627e-06 -11.8866 3.49814 -0.364283 -28.4462 11.9306 5.38401e-05 -31.9742 -6.00152 22.9521 180 -78.8297 180 5.42115 -1.67889 -0.0795008 -17.1279 9.42423 -9.93503 1.51395 -6.27652 -34.8849 -0 -0 38.21 -6.45159e-06 -5.58827 -5.60549 0.547595 1.26429e-06 -27.5264 -0.9063 9.42176 -0.643199 -0 -0 38.2092 -3.23848e-06 -8.36938 29.7279 -4.1725 -2.06414e-05 -61.3896 
-60.178 83.534 0.7841 91.5071 87.3347 109.925 0 -0 0 10.5671 -12.5437 -7.77848 27.9928 -9.04935 -1.30956e-05 52.4274 -2.94305 -2.60853 -0 63.6173 -0 -13.2994 3.00136 -0.349979 -28.7903 11.8969 -0.000134207 -32.2435 -5.83354 22.606 180 -79.3972 180 5.91969 -1.7756 -0.0917973 -17.8976 9.29049 -10.1449 1.85522 -6.69748 -33.9884 -0 -0 38.3432 -1.66101e-06 -5.59581 -6.44457 0.630094 3.10394e-06 -29.0985 -0.277298 9.50253 -1.70389 -0 -0 40.645 7.21347e-06 -7.15015 29.8116 -3.56874 -1.92766e-05 -58.8307 
-59.035 83.517 0.9551 101.752 87.4568 120.163 0 -0 0 10.7804 -12.5175 -7.76471 28.1152 -8.82426 -2.30998e-05 52.5371 -2.40847 -2.3978 -7.92851e-07 62.613 -4.82173e-07 -14.5938 2.46873 -0.316207 -29.0741 11.8796 3.28462e-06 -32.6912 -5.62214 22.348 180 -80.1483 180 6.53633 -1.8118 -0.1035 -18.595 9.18527 -10.2733 2.19993 -7.1083 -33.0223 -0 -0 38.1118 4.82229e-07 -5.61965 -7.10081 0.696894 6.43202e-06 -30.5003 0.283895 9.53435 -2.8661 -0 -0 42.9803 -5.31857e-05 -5.6915 29.6554 -2.82299 -2.39038e-05 -56.6267 
-57.908 83.545 1.1254 111.645 87.481 130.087 0 -0 0 10.9115 -12.4134 -7.79297 28.2102 -8.63233 4.42639e-06 52.6824 -1.91449 -2.06922 -7.74984e-07 61.7916 -4.63744e-07 -15.7113 1.93318 -0.266698 -29.297 11.8796 2.42866e-05 -33.295 -5.36483 22.168 180 -81.0553 -180 7.24793 -1.78253 -0.112902 -19.2237 9.11158 -10.3287 2.52558 -7.4676 -32.0156 -0 -0 37.5939 -1.81439e-06 -5.68294 -7.58099 0.752199 2.8099e-06 -31.5659 0.758604 9.52285 -4.1161 -0 -0 45.1813 9.08896e-06 -4.10167 29.2349 -2.00583 -1.5034e-05 -54.8095 
-56.795 83.613 1.2858 119.739 87.4436 138.256 0 -0 0 10.9177 -12.2227 -7.85846 28.2842 -8.47909 -3.87289e-05 52.8563 -1.46813 -1.62082 -0 61.1731 -0 -16.609 1.43306 -0.209192 -29.4549 11.9053 -6.23594e-05 -34.0266 -5.06806 22.0607 180 -82.0931 -180 8.0276 -1.68511 -0.118301 -19.7778 9.07016 -10.3226 2.78891 -7.76462 -31.0015 -0 -0 36.8885 -5.83802e-06 -5.77726 -7.8983 0.796495 -7.10972e-06 -32.2276 1.10121 9.46105 -5.43356 -0 -0 47.2125 -3.30211e-06 -2.47844 28.5517 -1.18509 -3.54924e-06 -53.3349 
-55.694 83.717 1.4323 125.404 87.3388 144.025 0 -0 0 10.7928 -11.9417 -7.9544 28.3351 -8.35541 3.35379e-05 53.0628 -1.08223 -1.07772 -0 60.766 -0 -17.2395 1.0084 -0.152902 -29.5542 11.9332 0.000214747 -34.8547 -4.69621 21.9927 -180 -83.2226 180 8.84012 -1.52335 -0.117795 -20.264 9.06202 -10.2704 2.97231 -7.98094 -29.9977 -0 -0 36.0772 8.55209e-06 -5.89973 -8.05393 0.829417 -2.00879e-07 -32.5289 1.30258 9.35267 -6.80004 -0 -0 49.0553 -1.00733e-05 -0.922597 27.6196 -0.427808 -4.46277e-06 -52.0953 
-54.607 83.857 1.5762 129.528 87.2608 148.291 0 -0 0 10.6103 -11.5727 -8.08144 28.3492 -8.26995 -2.47722e-05 53.2764 -0.731694 -0.400504 -7.49816e-07 60.5483 -4.37707e-07 -17.6143 0.700998 -0.108601 -29.634 12.0164 -9.23456e-05 -35.7325 -4.3239 21.9673 -180 -84.4519 180 9.65645 -1.29466 -0.109395 -20.7041 9.08799 -10.1946 3.11776 -8.04733 -29.0009 -0 -0 35.179 1.93491e-06 -6.09507 -8.02516 0.854105 5.65509e-07 -32.5824 1.4313 9.22135 -8.22213 -0 -0 50.7131 3.64299e-06 0.464404 26.4755 0.207098 -1.48465e-06 -51.1758 
-53.526 84.027 1.6972 131.195 87.1865 150.122 0 -0 0 10.2852 -11.1316 -8.21511 28.346 -8.21183 7.81075e-05 53.4957 -0.417198 0.371695 -0 60.5128 -0 -17.6983 0.538498 -0.0837974 -29.6807 12.1143 -7.70587e-05 -36.633 -3.89434 21.9467 -180 -85.7068 180 10.4385 -1.01051 -0.0922984 -21.0848 9.14399 -10.1085 3.15652 -8.04424 -28.0366 -0 -0 34.3075 -3.90891e-06 -6.27292 -7.83978 0.859009 1.14007e-06 -32.5538 1.40403 9.03763 -9.65553 -0 -0 52.1475 6.83973e-06 1.6766 25.1743 0.713299 -3.65238e-06 -50.4051 
-52.452 84.226 1.802 131.292 87.1277 150.395 0 -0 0 9.8731 -10.6299 -8.35021 28.3186 -8.16835 -3.36272e-05 53.7094 -0.129119 1.2332 -7.51404e-07 60.6309 -4.39356e-07 -17.5035 0.544098 -0.0837998 -29.7237 12.2263 -0.000126544 -37.523 -3.40788 21.9085 -180 -86.9797 180 11.1538 -0.678801 -0.0662996 -21.4205 9.22916 -10.029 3.12249 -7.95316 -27.0925 -0 -0 33.4655 6.50004e-06 -6.43949 -7.48398 0.842192 -3.41575e-06 -32.6176 1.27409 8.81696 -11.0987 -0 -0 53.3696 1.97706e-05 2.68544 23.7558 1.0824 5.00639e-06 -49.6237 
